<svg xmlns="http://www.w3.org/2000/svg" viewBox="0 0 212.62 18.576" overflow="visible">
	<path d="M 6.769 1.474 C 5.449 1.474 4.896 2.058 4.896 3.278 L 4.896 15.222 C 4.896 16.467 5.496 17.051 6.84 17.051 L 7.8 17.051 C 11.232 17.051 13.512 13.849 13.512 9.301 C 13.512 4.727 11.209 1.474 7.68 1.474 Z M 0 18.169 L 0 17.153 L 0.792 17.153 C 1.945 17.153 2.449 16.696 2.449 15.679 L 2.449 2.922 C 2.449 1.906 1.945 1.448 0.793 1.448 L 0 1.448 L 0 0.381 L 7.848 0.381 C 12.936 0.381 16.223 4.066 16.223 9.275 C 16.223 14.485 13.032 18.169 8.087 18.169 L 0.002 18.169 Z M 38.853 8.36 C 39.813 8.36 40.245 7.878 40.245 6.76 L 40.245 5.997 L 41.253 5.997 L 41.253 11.994 L 40.245 11.994 L 40.245 11.232 C 40.245 10.114 39.813 9.631 38.853 9.631 L 35.061 9.631 L 35.061 15.222 C 35.061 16.492 35.685 17.026 37.101 17.026 L 38.877 17.026 C 41.757 17.026 42.429 15.781 43.053 13.875 L 43.197 13.519 L 44.181 13.519 L 43.077 18.169 L 30.165 18.169 L 30.165 17.077 L 30.957 17.077 C 32.109 17.077 32.613 16.619 32.613 15.603 L 32.613 2.922 C 32.613 1.906 32.109 1.448 30.957 1.448 L 30.165 1.448 L 30.165 0.381 L 42.813 0.381 L 43.917 4.93 L 42.933 4.93 L 42.813 4.574 C 42.165 2.744 41.541 1.499 38.661 1.499 L 37.101 1.499 C 35.685 1.499 35.061 2.058 35.061 3.329 L 35.061 8.36 Z M 57.823 9.275 C 57.823 3.837 61.375 0 66.343 0 C 68.166 0 70.063 0.534 71.598 1.347 L 72.078 5.718 L 71.166 5.718 C 70.855 4.981 70.615 4.244 70.255 3.558 C 69.486 1.88 67.975 1.398 66.535 1.398 C 62.815 1.398 60.463 4.777 60.463 9.275 C 60.463 13.748 62.815 17.153 66.535 17.153 C 67.975 17.153 69.487 16.67 70.255 14.993 C 70.615 14.307 70.855 13.57 71.166 12.833 L 72.079 12.833 L 71.599 17.204 C 70.062 18.017 68.166 18.551 66.342 18.551 C 61.375 18.551 57.822 14.713 57.822 9.275 Z M 90.936 15.603 C 90.936 16.619 91.44 17.077 92.592 17.077 L 93.384 17.077 L 93.384 18.169 L 86.04 18.169 L 86.04 17.077 L 86.832 17.077 C 87.984 17.077 88.488 16.619 88.488 15.603 L 88.488 2.922 C 88.488 1.906 87.984 1.448 86.832 1.448 L 86.04 1.448 L 86.04 0.381 L 93.384 0.381 L 93.384 1.448 L 92.592 1.448 C 91.44 1.448 90.936 1.906 90.936 2.922 Z M 116.657 17.153 L 111.809 3.863 L 111.353 15.095 C 111.305 16.467 111.857 17.077 113.009 17.077 L 113.777 17.077 L 113.777 18.169 L 107.393 18.169 L 107.393 17.077 L 108.185 17.077 C 109.337 17.077 109.793 16.619 109.841 15.603 L 110.417 2.922 C 110.465 1.906 109.913 1.448 108.761 1.448 L 107.969 1.448 L 107.969 0.381 L 113.129 0.381 L 118.025 14.027 L 123.017 0.381 L 128.105 0.381 L 128.105 1.448 L 127.313 1.448 C 126.161 1.448 125.609 1.906 125.657 2.922 L 126.137 15.603 C 126.185 16.619 126.641 17.077 127.793 17.077 L 128.585 17.077 L 128.585 18.169 L 121.265 18.169 L 121.265 17.077 L 122.033 17.077 C 123.185 17.077 123.737 16.518 123.689 15.095 L 123.329 3.71 L 118.361 17.153 Z M 156.826 15.044 C 157.258 16.314 158.05 17.077 158.986 17.077 L 159.61 17.077 L 159.61 18.169 L 152.386 18.169 L 152.386 17.077 L 153.202 17.077 C 154.234 17.077 154.522 16.365 154.09 15.044 L 153.154 12.147 L 147.682 12.147 L 146.722 15.044 C 146.314 16.34 146.602 17.077 147.586 17.077 L 148.426 17.077 L 148.426 18.169 L 142.378 18.169 L 142.378 17.077 L 142.978 17.077 C 143.962 17.077 144.706 16.34 145.138 15.044 L 150.13 0.381 L 151.858 0.381 Z M 148.114 10.902 L 152.746 10.902 L 150.466 3.812 Z M 178.193 15.171 C 178.193 16.441 178.817 17.026 180.233 17.026 L 182.009 17.026 C 184.889 17.026 185.561 15.781 186.185 13.875 L 186.329 13.519 L 187.313 13.519 L 186.209 18.169 L 173.297 18.169 L 173.297 17.077 L 174.089 17.077 C 175.241 17.077 175.745 16.619 175.745 15.603 L 175.745 2.922 C 175.745 1.906 175.241 1.448 174.089 1.448 L 173.297 1.448 L 173.297 0.381 L 181.121 0.381 L 181.121 1.448 L 180.329 1.448 C 178.841 1.448 178.193 2.058 178.193 3.431 Z M 203.788 4.168 C 203.788 8.589 212.62 7.268 212.62 13.341 C 212.62 16.162 210.604 18.576 206.788 18.576 C 204.604 18.576 202.612 17.788 201.244 16.619 L 200.932 12.96 L 201.82 12.96 C 202.132 13.748 202.372 14.408 202.66 14.84 C 203.284 15.984 204.556 17.178 206.74 17.178 C 208.972 17.178 210.244 15.806 210.244 14.027 C 210.244 9.301 201.412 11.003 201.412 4.854 C 201.412 2.211 203.38 0 207.004 0 C 208.396 0 209.956 0.407 211.348 0.991 L 211.66 4.498 L 210.748 4.498 C 210.556 3.964 210.268 3.329 210.1 3.049 C 209.428 1.855 208.204 1.398 207.076 1.398 C 204.964 1.398 203.788 2.668 203.788 4.168 Z" fill="rgb(47,44,37)" />
</svg>
