<svg width="6464" height="1896" viewBox="0 0 6464 1896" fill="none" xmlns="http://www.w3.org/2000/svg">
<path d="M2536.8 1397.43C2536.8 1498.25 2485.51 1554.84 2392.65 1554.84C2298.03 1554.84 2244.08 1497.36 2244.08 1397.43V550.221C2244.08 406.956 2308.64 338.861 2447.48 338.861H2766.73C3037.34 338.861 3203.6 481.241 3203.6 712.941C3203.6 865.05 3129.32 984.437 2998.43 1045.46L3155.85 1324.03C3171.77 1351.44 3179.72 1385.05 3179.72 1416C3179.72 1496.48 3119.59 1553.07 3034.69 1553.07C2957.75 1553.07 2917.07 1521.24 2869.32 1427.5L2710.13 1117.09H2536.8V1397.43ZM2536.8 910.152H2726.94C2842.79 910.152 2913.53 849.131 2913.53 739.472C2913.53 631.581 2843.67 570.561 2726.94 570.561H2536.8V910.152Z" fill="#1a1a1a"/>
<path d="M3863.86 1387.7C3832.91 1480.56 3732.97 1556.61 3584.4 1556.61C3396.04 1556.61 3275.76 1450.49 3275.76 1230.29V748.315C3275.76 645.731 3328.83 593.554 3419.03 593.554C3508.35 593.554 3560.53 645.731 3560.53 748.315V1158.65C3560.53 1275.39 3621.55 1325.8 3706.44 1325.8C3808.14 1325.8 3870.05 1256.82 3870.05 1152.46V748.315C3870.05 645.731 3922.23 593.554 4011.54 593.554C4101.75 593.554 4153.93 645.731 4153.93 748.315V1404.5C4153.93 1500.01 4099.1 1554.84 4015.08 1554.84C3932.84 1554.84 3882.43 1507.97 3878.01 1418.65V1387.7H3863.86Z" fill="#1a1a1a"/>
<path d="M4849.56 1394.78C4817.72 1492.94 4710.71 1556.61 4578.94 1556.61C4364.05 1556.61 4232.28 1395.66 4232.28 1130.36V1012.74C4232.28 747.431 4364.93 587.364 4579.83 587.364C4710.71 587.364 4811.53 646.615 4846.9 743.009H4861.05V423.759C4861.05 322.943 4911.46 267.229 5002.55 267.229C5094.52 267.229 5144.93 322.943 5144.93 423.759V1399.2C5144.93 1500.01 5095.41 1554.84 5004.32 1554.84C4922.07 1554.84 4870.78 1506.2 4863.71 1421.31V1394.78H4849.56ZM4525.88 1112.67C4525.88 1254.16 4587.79 1337.29 4692.14 1337.29C4796.49 1337.29 4861.05 1254.16 4861.05 1117.97V1019.81C4861.05 891.58 4792.96 807.567 4690.37 807.567C4586.9 807.567 4525.88 891.58 4525.88 1032.19V1112.67Z" fill="#1a1a1a"/>
<path d="M5226.82 1126.82V1022.46C5226.82 755.39 5403.69 578.52 5669.88 578.52C5920.15 578.52 6097.02 753.622 6097.02 987.975C6097.02 1095.87 6058.99 1134.78 5957.29 1134.78H5516V1169.27C5517.77 1280.69 5592.06 1355.86 5718.52 1355.86C5786.61 1355.86 5832.6 1340.83 5868.86 1314.3C5912.19 1286.89 5930.76 1270.08 5974.98 1270.08C6032.46 1270.08 6070.49 1307.23 6070.49 1367.36C6070.49 1417.77 6039.54 1461.99 5985.59 1495.59C5921.04 1541.58 5817.57 1568.99 5698.18 1568.99C5406.34 1568.99 5226.82 1402.74 5226.82 1126.82ZM5516 972.056H5829.06V969.403C5829.06 861.512 5768.93 790.764 5676.07 790.764C5576.14 790.764 5516 863.281 5516 969.403V972.056Z" fill="#1a1a1a"/>
<path d="M6321.29 1554.84C6231.09 1554.84 6179.8 1500.9 6179.8 1399.2V423.759C6179.8 321.174 6231.09 267.229 6321.29 267.229C6411.5 267.229 6463.67 321.174 6463.67 423.759V1399.2C6463.67 1500.9 6411.5 1554.84 6321.29 1554.84Z" fill="#1a1a1a"/>
<circle cx="859.947" cy="948.44" r="268.025" transform="rotate(23.8002 859.947 948.44)" fill="#1a1a1a"/>
<path d="M859.625 537.599C1008.55 537.599 1129.37 417.364 1129.37 268.799C1129.37 120.235 1008.69 0 859.625 0C710.563 0 589.877 120.28 589.877 268.845C589.877 417.364 710.563 537.599 859.625 537.599ZM859.625 1895.24C1008.55 1895.24 1129.37 1774.96 1129.37 1626.4C1129.37 1477.88 1008.69 1357.6 859.625 1357.6C710.563 1357.6 589.877 1477.88 589.877 1626.44C589.877 1774.96 710.563 1895.24 859.625 1895.24ZM269.748 877.021C418.675 877.021 539.496 756.741 539.496 608.176C539.496 459.656 418.765 339.377 269.748 339.377C120.641 339.377 0 459.747 0 608.312C0 756.922 120.641 877.156 269.748 877.156V877.021ZM1449.5 1555.86C1598.43 1555.86 1719.25 1435.58 1719.25 1287.02C1719.25 1138.5 1598.56 1018.22 1449.5 1018.22C1300.44 1018.22 1179.75 1138.5 1179.75 1287.07C1179.75 1435.58 1300.44 1555.86 1449.5 1555.86ZM1449.5 877.021C1598.43 877.021 1719.25 756.741 1719.25 608.176C1719.25 459.702 1598.56 339.422 1449.5 339.422C1300.44 339.422 1179.75 459.702 1179.75 608.221C1179.75 756.741 1300.44 877.021 1449.5 877.021ZM269.748 1555.82C418.675 1555.82 539.496 1435.54 539.496 1286.97C539.496 1138.45 418.765 1018.22 269.748 1018.22C120.641 1018.22 0 1138.73 0 1287.11C0 1435.54 120.641 1555.95 269.748 1555.95V1555.82Z" fill="#1a1a1a"/>
</svg>
